<?xml version="1.0" encoding="UTF-8"?>
<svg xmlns="http://www.w3.org/2000/svg" xmlns:xlink="http://www.w3.org/1999/xlink" width="325pt" height="149pt" viewBox="0 0 325 149" version="1.1">
<g id="surface6">
<rect x="0" y="0" width="325" height="149" style="fill:rgb(100%,100%,100%);fill-opacity:1;stroke:none;"/>
<path style="fill:none;stroke-width:2.25;stroke-linecap:round;stroke-linejoin:round;stroke:rgb(0%,0%,0%);stroke-opacity:1;stroke-miterlimit:10;" d="M 161.792969 75.183594 L 161.503906 75.480469 L 161.21875 75.777344 L 160.9375 76.082031 L 160.660156 76.390625 L 160.390625 76.703125 L 160.125 77.019531 L 159.863281 77.34375 L 159.605469 77.667969 L 159.355469 77.996094 L 159.109375 78.332031 L 158.871094 78.667969 L 158.636719 79.007813 L 158.40625 79.351563 L 158.183594 79.699219 L 157.964844 80.050781 L 157.75 80.40625 L 157.542969 80.765625 L 157.34375 81.128906 L 157.148438 81.492188 L 156.957031 81.859375 L 156.773438 82.230469 L 156.597656 82.605469 L 156.425781 82.980469 L 156.257813 83.359375 L 156.097656 83.742188 L 155.945313 84.125 L 155.796875 84.511719 L 155.65625 84.902344 L 155.519531 85.292969 L 155.390625 85.6875 L 155.269531 86.082031 L 155.152344 86.480469 L 155.042969 86.878906 L 154.9375 87.277344 L 154.839844 87.679688 L 154.75 88.085938 L 154.664063 88.488281 L 154.585938 88.894531 L 154.515625 89.304688 L 154.449219 89.710938 L 154.390625 90.121094 L 154.335938 90.53125 L 154.292969 90.945313 L 154.253906 91.355469 L 154.21875 91.769531 L 154.191406 92.179688 L 154.171875 92.59375 L 154.160156 93.007813 L 154.152344 93.421875 L 154.152344 93.835938 L 154.160156 94.25 L 154.171875 94.664063 L 154.191406 95.078125 L 154.21875 95.488281 L 154.253906 95.902344 L 154.292969 96.316406 L 154.335938 96.726563 L 154.390625 97.136719 L 154.449219 97.546875 L 154.515625 97.953125 L 154.585938 98.363281 L 154.664063 98.769531 L 154.75 99.175781 L 154.839844 99.578125 L 154.9375 99.980469 L 155.042969 100.378906 L 155.152344 100.777344 L 155.269531 101.175781 L 155.390625 101.570313 L 155.519531 101.964844 L 155.65625 102.355469 L 155.796875 102.746094 L 155.945313 103.132813 L 156.097656 103.515625 L 156.257813 103.898438 L 156.425781 104.277344 L 156.597656 104.652344 L 156.773438 105.027344 L 156.957031 105.398438 L 157.148438 105.765625 L 157.34375 106.128906 L 157.542969 106.492188 L 157.75 106.851563 L 157.964844 107.207031 L 158.183594 107.558594 L 158.40625 107.90625 L 158.636719 108.25 L 158.871094 108.589844 L 159.109375 108.929688 L 159.355469 109.261719 L 159.605469 109.589844 L 159.863281 109.914063 L 160.125 110.238281 L 160.390625 110.554688 L 160.660156 110.867188 L 160.9375 111.175781 L 161.21875 111.480469 L 161.503906 111.777344 L 161.792969 112.074219 L 161.503906 111.777344 L 161.21875 111.480469 L 160.9375 111.175781 L 160.660156 110.867188 L 160.390625 110.554688 L 160.125 110.238281 L 159.863281 109.914063 L 159.605469 109.589844 L 159.355469 109.261719 L 159.109375 108.929688 L 158.871094 108.589844 L 158.636719 108.25 L 158.40625 107.90625 L 158.183594 107.558594 L 157.964844 107.207031 L 157.75 106.851563 L 157.542969 106.492188 L 157.34375 106.128906 L 157.148438 105.765625 L 156.957031 105.398438 L 156.773438 105.027344 L 156.597656 104.652344 L 156.425781 104.277344 L 156.257813 103.898438 L 156.097656 103.515625 L 155.945313 103.132813 L 155.796875 102.746094 L 155.65625 102.355469 L 155.519531 101.964844 L 155.390625 101.570313 L 155.269531 101.175781 L 155.152344 100.777344 L 155.042969 100.378906 L 154.9375 99.980469 L 154.839844 99.578125 L 154.75 99.175781 L 154.664063 98.769531 L 154.585938 98.363281 L 154.515625 97.953125 L 154.449219 97.546875 L 154.390625 97.136719 L 154.335938 96.726563 L 154.292969 96.316406 L 154.253906 95.902344 L 154.21875 95.488281 L 154.191406 95.078125 L 154.171875 94.664063 L 154.160156 94.25 L 154.152344 93.835938 L 154.152344 93.421875 L 154.160156 93.007813 L 154.171875 92.59375 L 154.191406 92.179688 L 154.21875 91.769531 L 154.253906 91.355469 L 154.292969 90.945313 L 154.335938 90.53125 L 154.390625 90.121094 L 154.449219 89.710938 L 154.515625 89.304688 L 154.585938 88.894531 L 154.664063 88.488281 L 154.75 88.085938 L 154.839844 87.679688 L 154.9375 87.277344 L 155.042969 86.878906 L 155.152344 86.480469 L 155.269531 86.082031 L 155.390625 85.6875 L 155.519531 85.292969 L 155.65625 84.902344 L 155.796875 84.511719 L 155.945313 84.125 L 156.097656 83.742188 L 156.257813 83.359375 L 156.425781 82.980469 L 156.597656 82.605469 L 156.773438 82.230469 L 156.957031 81.859375 L 157.148438 81.492188 L 157.34375 81.128906 L 157.542969 80.765625 L 157.75 80.40625 L 157.964844 80.050781 L 158.183594 79.699219 L 158.40625 79.351563 L 158.636719 79.007813 L 158.871094 78.667969 L 159.109375 78.332031 L 159.355469 77.996094 L 159.605469 77.667969 L 159.863281 77.34375 L 160.125 77.019531 L 160.390625 76.703125 L 160.660156 76.390625 L 160.9375 76.082031 L 161.21875 75.777344 L 161.503906 75.480469 Z M 161.792969 75.183594 "/>
<path style="fill:none;stroke-width:2.25;stroke-linecap:round;stroke-linejoin:round;stroke:rgb(0%,0%,0%);stroke-opacity:1;stroke-miterlimit:10;" d="M 161.816406 112.074219 L 162.105469 111.777344 L 162.390625 111.480469 L 162.671875 111.175781 L 162.949219 110.867188 L 163.21875 110.554688 L 163.484375 110.238281 L 163.746094 109.914063 L 164.003906 109.589844 L 164.253906 109.261719 L 164.5 108.929688 L 164.738281 108.589844 L 164.972656 108.25 L 165.203125 107.90625 L 165.425781 107.558594 L 165.644531 107.207031 L 165.855469 106.851563 L 166.0625 106.492188 L 166.265625 106.128906 L 166.460938 105.765625 L 166.648438 105.398438 L 166.835938 105.027344 L 167.011719 104.652344 L 167.183594 104.277344 L 167.351563 103.898438 L 167.511719 103.515625 L 167.664063 103.132813 L 167.8125 102.746094 L 167.953125 102.355469 L 168.089844 101.964844 L 168.21875 101.570313 L 168.339844 101.175781 L 168.457031 100.777344 L 168.566406 100.378906 L 168.671875 99.980469 L 168.769531 99.578125 L 168.859375 99.175781 L 168.945313 98.769531 L 169.023438 98.363281 L 169.09375 97.953125 L 169.160156 97.546875 L 169.21875 97.136719 L 169.273438 96.726563 L 169.316406 96.316406 L 169.355469 95.902344 L 169.390625 95.488281 L 169.414063 95.078125 L 169.433594 94.664063 L 169.449219 94.25 L 169.457031 93.835938 L 169.457031 93.421875 L 169.449219 93.007813 L 169.433594 92.59375 L 169.414063 92.179688 L 169.390625 91.769531 L 169.355469 91.355469 L 169.316406 90.945313 L 169.273438 90.53125 L 169.21875 90.121094 L 169.160156 89.710938 L 169.09375 89.304688 L 169.023438 88.894531 L 168.945313 88.488281 L 168.859375 88.085938 L 168.769531 87.679688 L 168.671875 87.277344 L 168.566406 86.878906 L 168.457031 86.480469 L 168.339844 86.082031 L 168.21875 85.6875 L 168.089844 85.292969 L 167.953125 84.902344 L 167.8125 84.511719 L 167.664063 84.125 L 167.511719 83.742188 L 167.351563 83.359375 L 167.183594 82.980469 L 167.011719 82.605469 L 166.835938 82.230469 L 166.648438 81.859375 L 166.460938 81.492188 L 166.265625 81.128906 L 166.0625 80.765625 L 165.855469 80.40625 L 165.644531 80.050781 L 165.425781 79.699219 L 165.203125 79.351563 L 164.972656 79.007813 L 164.738281 78.667969 L 164.5 78.332031 L 164.253906 77.996094 L 164.003906 77.667969 L 163.746094 77.34375 L 163.484375 77.019531 L 163.21875 76.703125 L 162.949219 76.390625 L 162.671875 76.082031 L 162.390625 75.777344 L 162.105469 75.480469 L 161.816406 75.183594 L 162.105469 75.480469 L 162.390625 75.777344 L 162.671875 76.082031 L 162.949219 76.390625 L 163.21875 76.703125 L 163.484375 77.019531 L 163.746094 77.34375 L 164.003906 77.667969 L 164.253906 77.996094 L 164.5 78.332031 L 164.738281 78.667969 L 164.972656 79.007813 L 165.203125 79.351563 L 165.425781 79.699219 L 165.644531 80.050781 L 165.855469 80.40625 L 166.0625 80.765625 L 166.265625 81.128906 L 166.460938 81.492188 L 166.648438 81.859375 L 166.835938 82.230469 L 167.011719 82.605469 L 167.183594 82.980469 L 167.351563 83.359375 L 167.511719 83.742188 L 167.664063 84.125 L 167.8125 84.511719 L 167.953125 84.902344 L 168.089844 85.292969 L 168.21875 85.6875 L 168.339844 86.082031 L 168.457031 86.480469 L 168.566406 86.878906 L 168.671875 87.277344 L 168.769531 87.679688 L 168.859375 88.085938 L 168.945313 88.488281 L 169.023438 88.894531 L 169.09375 89.304688 L 169.160156 89.710938 L 169.21875 90.121094 L 169.273438 90.53125 L 169.316406 90.945313 L 169.355469 91.355469 L 169.390625 91.769531 L 169.414063 92.179688 L 169.433594 92.59375 L 169.449219 93.007813 L 169.457031 93.421875 L 169.457031 93.835938 L 169.449219 94.25 L 169.433594 94.664063 L 169.414063 95.078125 L 169.390625 95.488281 L 169.355469 95.902344 L 169.316406 96.316406 L 169.273438 96.726563 L 169.21875 97.136719 L 169.160156 97.546875 L 169.09375 97.953125 L 169.023438 98.363281 L 168.945313 98.769531 L 168.859375 99.175781 L 168.769531 99.578125 L 168.671875 99.980469 L 168.566406 100.378906 L 168.457031 100.777344 L 168.339844 101.175781 L 168.21875 101.570313 L 168.089844 101.964844 L 167.953125 102.355469 L 167.8125 102.746094 L 167.664063 103.132813 L 167.511719 103.515625 L 167.351563 103.898438 L 167.183594 104.277344 L 167.011719 104.652344 L 166.835938 105.027344 L 166.648438 105.398438 L 166.460938 105.765625 L 166.265625 106.128906 L 166.0625 106.492188 L 165.855469 106.851563 L 165.644531 107.207031 L 165.425781 107.558594 L 165.203125 107.90625 L 164.972656 108.25 L 164.738281 108.589844 L 164.5 108.929688 L 164.253906 109.261719 L 164.003906 109.589844 L 163.746094 109.914063 L 163.484375 110.238281 L 163.21875 110.554688 L 162.949219 110.867188 L 162.671875 111.175781 L 162.390625 111.480469 L 162.105469 111.777344 Z M 161.816406 112.074219 "/>
<path style="fill:none;stroke-width:2.25;stroke-linecap:round;stroke-linejoin:round;stroke:rgb(0%,0%,0%);stroke-opacity:1;stroke-miterlimit:10;" d="M 124.925781 75.554688 L 125.222656 75.84375 L 125.519531 76.128906 L 125.824219 76.410156 L 126.132813 76.6875 L 126.445313 76.957031 L 126.761719 77.226563 L 127.410156 77.742188 L 127.738281 77.992188 L 128.070313 78.238281 L 128.410156 78.476563 L 128.75 78.710938 L 129.09375 78.941406 L 129.441406 79.164063 L 129.792969 79.382813 L 130.148438 79.597656 L 130.507813 79.804688 L 130.871094 80.003906 L 131.234375 80.199219 L 131.601563 80.390625 L 131.972656 80.574219 L 132.347656 80.75 L 132.722656 80.921875 L 133.101563 81.089844 L 133.484375 81.25 L 133.867188 81.402344 L 134.253906 81.550781 L 134.644531 81.691406 L 135.035156 81.828125 L 135.429688 81.957031 L 135.824219 82.078125 L 136.222656 82.195313 L 136.621094 82.304688 L 137.019531 82.410156 L 137.421875 82.507813 L 137.824219 82.597656 L 138.230469 82.683594 L 138.636719 82.761719 L 139.046875 82.832031 L 139.453125 82.898438 L 139.863281 82.957031 L 140.273438 83.011719 L 140.683594 83.054688 L 141.097656 83.097656 L 141.511719 83.128906 L 141.921875 83.15625 L 142.335938 83.175781 L 142.75 83.1875 L 143.164063 83.195313 L 143.578125 83.195313 L 143.992188 83.1875 L 144.40625 83.175781 L 144.820313 83.15625 L 145.230469 83.128906 L 145.644531 83.097656 L 146.054688 83.054688 L 146.46875 83.011719 L 146.878906 82.957031 L 147.289063 82.898438 L 147.695313 82.832031 L 148.105469 82.761719 L 148.511719 82.683594 L 148.914063 82.597656 L 149.320313 82.507813 L 149.722656 82.410156 L 150.121094 82.304688 L 150.519531 82.195313 L 150.917969 82.078125 L 151.3125 81.957031 L 151.707031 81.828125 L 152.097656 81.691406 L 152.488281 81.550781 L 152.875 81.402344 L 153.257813 81.25 L 153.640625 81.089844 L 154.019531 80.921875 L 154.394531 80.75 L 154.769531 80.574219 L 155.140625 80.390625 L 155.507813 80.199219 L 155.871094 80.003906 L 156.234375 79.804688 L 156.59375 79.597656 L 156.949219 79.382813 L 157.300781 79.164063 L 157.648438 78.941406 L 157.992188 78.710938 L 158.332031 78.476563 L 158.667969 78.238281 L 159.003906 77.992188 L 159.332031 77.742188 L 159.980469 77.226563 L 160.296875 76.957031 L 160.609375 76.6875 L 160.917969 76.410156 L 161.222656 76.128906 L 161.519531 75.84375 L 161.816406 75.554688 L 161.519531 75.84375 L 161.222656 76.128906 L 160.917969 76.410156 L 160.609375 76.6875 L 160.296875 76.957031 L 159.980469 77.226563 L 159.332031 77.742188 L 159.003906 77.992188 L 158.667969 78.238281 L 158.332031 78.476563 L 157.992188 78.710938 L 157.648438 78.941406 L 157.300781 79.164063 L 156.949219 79.382813 L 156.59375 79.597656 L 156.234375 79.804688 L 155.871094 80.003906 L 155.507813 80.199219 L 155.140625 80.390625 L 154.769531 80.574219 L 154.394531 80.75 L 154.019531 80.921875 L 153.640625 81.089844 L 153.257813 81.25 L 152.875 81.402344 L 152.488281 81.550781 L 152.097656 81.691406 L 151.707031 81.828125 L 151.3125 81.957031 L 150.917969 82.078125 L 150.519531 82.195313 L 150.121094 82.304688 L 149.722656 82.410156 L 149.320313 82.507813 L 148.914063 82.597656 L 148.511719 82.683594 L 148.105469 82.761719 L 147.695313 82.832031 L 147.289063 82.898438 L 146.878906 82.957031 L 146.46875 83.011719 L 146.054688 83.054688 L 145.644531 83.097656 L 145.230469 83.128906 L 144.820313 83.15625 L 144.40625 83.175781 L 143.992188 83.1875 L 143.578125 83.195313 L 143.164063 83.195313 L 142.75 83.1875 L 142.335938 83.175781 L 141.921875 83.15625 L 141.511719 83.128906 L 141.097656 83.097656 L 140.683594 83.054688 L 140.273438 83.011719 L 139.863281 82.957031 L 139.453125 82.898438 L 139.046875 82.832031 L 138.636719 82.761719 L 138.230469 82.683594 L 137.824219 82.597656 L 137.421875 82.507813 L 137.019531 82.410156 L 136.621094 82.304688 L 136.222656 82.195313 L 135.824219 82.078125 L 135.429688 81.957031 L 135.035156 81.828125 L 134.644531 81.691406 L 134.253906 81.550781 L 133.867188 81.402344 L 133.484375 81.25 L 133.101563 81.089844 L 132.722656 80.921875 L 132.347656 80.75 L 131.972656 80.574219 L 131.601563 80.390625 L 131.234375 80.199219 L 130.871094 80.003906 L 130.507813 79.804688 L 130.148438 79.597656 L 129.792969 79.382813 L 129.441406 79.164063 L 129.09375 78.941406 L 128.75 78.710938 L 128.410156 78.476563 L 128.070313 78.238281 L 127.738281 77.992188 L 127.410156 77.742188 L 126.761719 77.226563 L 126.445313 76.957031 L 126.132813 76.6875 L 125.824219 76.410156 L 125.519531 76.128906 L 125.222656 75.84375 Z M 124.925781 75.554688 "/>
<path style="fill:none;stroke-width:2.25;stroke-linecap:round;stroke-linejoin:round;stroke:rgb(0%,0%,0%);stroke-opacity:1;stroke-miterlimit:10;" d="M 161.816406 75.183594 L 161.519531 74.894531 L 161.222656 74.609375 L 160.917969 74.328125 L 160.609375 74.050781 L 160.296875 73.78125 L 159.980469 73.515625 L 159.65625 73.253906 L 159.332031 72.996094 L 159.003906 72.746094 L 158.667969 72.5 L 158.332031 72.261719 L 157.992188 72.027344 L 157.648438 71.796875 L 157.300781 71.574219 L 156.949219 71.355469 L 156.59375 71.144531 L 156.234375 70.9375 L 155.871094 70.734375 L 155.507813 70.539063 L 155.140625 70.351563 L 154.769531 70.164063 L 154.394531 69.988281 L 154.019531 69.816406 L 153.640625 69.648438 L 153.257813 69.488281 L 152.875 69.335938 L 152.488281 69.1875 L 152.097656 69.046875 L 151.707031 68.910156 L 151.3125 68.78125 L 150.917969 68.660156 L 150.519531 68.542969 L 150.121094 68.433594 L 149.722656 68.328125 L 149.320313 68.230469 L 148.914063 68.140625 L 148.511719 68.054688 L 148.105469 67.976563 L 147.695313 67.90625 L 147.289063 67.839844 L 146.878906 67.78125 L 146.46875 67.726563 L 146.054688 67.683594 L 145.644531 67.644531 L 145.230469 67.609375 L 144.820313 67.585938 L 144.40625 67.566406 L 143.992188 67.550781 L 143.578125 67.542969 L 143.164063 67.542969 L 142.75 67.550781 L 142.335938 67.566406 L 141.921875 67.585938 L 141.511719 67.609375 L 141.097656 67.644531 L 140.683594 67.683594 L 140.273438 67.726563 L 139.863281 67.78125 L 139.453125 67.839844 L 139.046875 67.90625 L 138.636719 67.976563 L 138.230469 68.054688 L 137.824219 68.140625 L 137.421875 68.230469 L 137.019531 68.328125 L 136.621094 68.433594 L 136.222656 68.542969 L 135.824219 68.660156 L 135.429688 68.78125 L 135.035156 68.910156 L 134.644531 69.046875 L 134.253906 69.1875 L 133.867188 69.335938 L 133.484375 69.488281 L 133.101563 69.648438 L 132.722656 69.816406 L 132.347656 69.988281 L 131.972656 70.164063 L 131.601563 70.351563 L 131.234375 70.539063 L 130.871094 70.734375 L 130.507813 70.9375 L 130.148438 71.144531 L 129.792969 71.355469 L 129.441406 71.574219 L 129.09375 71.796875 L 128.75 72.027344 L 128.410156 72.261719 L 128.070313 72.5 L 127.738281 72.746094 L 127.410156 72.996094 L 127.085938 73.253906 L 126.761719 73.515625 L 126.445313 73.78125 L 126.132813 74.050781 L 125.824219 74.328125 L 125.519531 74.609375 L 125.222656 74.894531 L 124.925781 75.183594 L 125.222656 74.894531 L 125.519531 74.609375 L 125.824219 74.328125 L 126.132813 74.050781 L 126.445313 73.78125 L 126.761719 73.515625 L 127.085938 73.253906 L 127.410156 72.996094 L 127.738281 72.746094 L 128.070313 72.5 L 128.410156 72.261719 L 128.75 72.027344 L 129.09375 71.796875 L 129.441406 71.574219 L 129.792969 71.355469 L 130.148438 71.144531 L 130.507813 70.9375 L 130.871094 70.734375 L 131.234375 70.539063 L 131.601563 70.351563 L 131.972656 70.164063 L 132.347656 69.988281 L 132.722656 69.816406 L 133.101563 69.648438 L 133.484375 69.488281 L 133.867188 69.335938 L 134.253906 69.1875 L 134.644531 69.046875 L 135.035156 68.910156 L 135.429688 68.78125 L 135.824219 68.660156 L 136.222656 68.542969 L 136.621094 68.433594 L 137.019531 68.328125 L 137.421875 68.230469 L 137.824219 68.140625 L 138.230469 68.054688 L 138.636719 67.976563 L 139.046875 67.90625 L 139.453125 67.839844 L 139.863281 67.78125 L 140.273438 67.726563 L 140.683594 67.683594 L 141.097656 67.644531 L 141.511719 67.609375 L 141.921875 67.585938 L 142.335938 67.566406 L 142.75 67.550781 L 143.164063 67.542969 L 143.578125 67.542969 L 143.992188 67.550781 L 144.40625 67.566406 L 144.820313 67.585938 L 145.230469 67.609375 L 145.644531 67.644531 L 146.054688 67.683594 L 146.46875 67.726563 L 146.878906 67.78125 L 147.289063 67.839844 L 147.695313 67.90625 L 148.105469 67.976563 L 148.511719 68.054688 L 148.914063 68.140625 L 149.320313 68.230469 L 149.722656 68.328125 L 150.121094 68.433594 L 150.519531 68.542969 L 150.917969 68.660156 L 151.3125 68.78125 L 151.707031 68.910156 L 152.097656 69.046875 L 152.488281 69.1875 L 152.875 69.335938 L 153.257813 69.488281 L 153.640625 69.648438 L 154.019531 69.816406 L 154.394531 69.988281 L 154.769531 70.164063 L 155.140625 70.351563 L 155.507813 70.539063 L 155.871094 70.734375 L 156.234375 70.9375 L 156.59375 71.144531 L 156.949219 71.355469 L 157.300781 71.574219 L 157.648438 71.796875 L 157.992188 72.027344 L 158.332031 72.261719 L 158.667969 72.5 L 159.003906 72.746094 L 159.332031 72.996094 L 159.65625 73.253906 L 159.980469 73.515625 L 160.296875 73.78125 L 160.609375 74.050781 L 160.917969 74.328125 L 161.222656 74.609375 L 161.519531 74.894531 Z M 161.816406 75.183594 "/>
<path style="fill:none;stroke-width:2.25;stroke-linecap:round;stroke-linejoin:round;stroke:rgb(0%,0%,0%);stroke-opacity:1;stroke-miterlimit:10;" d="M 161.445313 38.664063 L 161.15625 38.960938 L 160.871094 39.257813 L 160.589844 39.5625 L 160.3125 39.871094 L 160.042969 40.183594 L 159.773438 40.5 L 159.257813 41.148438 L 159.007813 41.476563 L 158.761719 41.8125 L 158.523438 42.148438 L 158.289063 42.488281 L 158.058594 42.832031 L 157.835938 43.183594 L 157.617188 43.535156 L 157.402344 43.886719 L 157.195313 44.246094 L 156.996094 44.609375 L 156.800781 44.972656 L 156.609375 45.339844 L 156.425781 45.710938 L 156.25 46.085938 L 156.078125 46.460938 L 155.910156 46.839844 L 155.75 47.222656 L 155.597656 47.609375 L 155.449219 47.996094 L 155.308594 48.382813 L 155.171875 48.773438 L 155.042969 49.167969 L 154.921875 49.5625 L 154.804688 49.960938 L 154.695313 50.359375 L 154.589844 50.757813 L 154.492188 51.160156 L 154.402344 51.566406 L 154.316406 51.96875 L 154.238281 52.375 L 154.167969 52.785156 L 154.101563 53.191406 L 154.042969 53.601563 L 153.988281 54.011719 L 153.945313 54.425781 L 153.902344 54.835938 L 153.871094 55.25 L 153.84375 55.664063 L 153.824219 56.074219 L 153.8125 56.488281 L 153.804688 56.902344 L 153.804688 57.316406 L 153.8125 57.730469 L 153.824219 58.144531 L 153.84375 58.558594 L 153.871094 58.972656 L 153.902344 59.382813 L 153.945313 59.796875 L 153.988281 60.207031 L 154.042969 60.617188 L 154.101563 61.027344 L 154.167969 61.4375 L 154.238281 61.84375 L 154.316406 62.25 L 154.402344 62.65625 L 154.492188 63.058594 L 154.589844 63.460938 L 154.695313 63.859375 L 154.804688 64.261719 L 154.921875 64.65625 L 155.042969 65.050781 L 155.171875 65.445313 L 155.308594 65.835938 L 155.449219 66.226563 L 155.597656 66.613281 L 155.75 66.996094 L 155.910156 67.378906 L 156.078125 67.757813 L 156.25 68.132813 L 156.425781 68.507813 L 156.609375 68.878906 L 156.800781 69.246094 L 156.996094 69.609375 L 157.195313 69.972656 L 157.402344 70.332031 L 157.617188 70.6875 L 157.835938 71.039063 L 158.058594 71.386719 L 158.289063 71.730469 L 158.523438 72.070313 L 158.761719 72.410156 L 159.007813 72.742188 L 159.257813 73.070313 L 159.515625 73.398438 L 159.773438 73.71875 L 160.042969 74.035156 L 160.3125 74.347656 L 160.589844 74.65625 L 160.871094 74.960938 L 161.15625 75.261719 L 161.445313 75.554688 L 161.15625 75.261719 L 160.871094 74.960938 L 160.589844 74.65625 L 160.3125 74.347656 L 160.042969 74.035156 L 159.773438 73.71875 L 159.515625 73.398438 L 159.257813 73.070313 L 159.007813 72.742188 L 158.761719 72.410156 L 158.523438 72.070313 L 158.289063 71.730469 L 158.058594 71.386719 L 157.835938 71.039063 L 157.617188 70.6875 L 157.402344 70.332031 L 157.195313 69.972656 L 156.996094 69.609375 L 156.800781 69.246094 L 156.609375 68.878906 L 156.425781 68.507813 L 156.25 68.132813 L 156.078125 67.757813 L 155.910156 67.378906 L 155.75 66.996094 L 155.597656 66.613281 L 155.449219 66.226563 L 155.308594 65.835938 L 155.171875 65.445313 L 155.042969 65.050781 L 154.921875 64.65625 L 154.804688 64.261719 L 154.695313 63.859375 L 154.589844 63.460938 L 154.492188 63.058594 L 154.402344 62.65625 L 154.316406 62.25 L 154.238281 61.84375 L 154.167969 61.4375 L 154.101563 61.027344 L 154.042969 60.617188 L 153.988281 60.207031 L 153.945313 59.796875 L 153.902344 59.382813 L 153.871094 58.972656 L 153.84375 58.558594 L 153.824219 58.144531 L 153.8125 57.730469 L 153.804688 57.316406 L 153.804688 56.902344 L 153.8125 56.488281 L 153.824219 56.074219 L 153.84375 55.664063 L 153.871094 55.25 L 153.902344 54.835938 L 153.945313 54.425781 L 153.988281 54.011719 L 154.042969 53.601563 L 154.101563 53.191406 L 154.167969 52.785156 L 154.238281 52.375 L 154.316406 51.96875 L 154.402344 51.566406 L 154.492188 51.160156 L 154.589844 50.757813 L 154.695313 50.359375 L 154.804688 49.960938 L 154.921875 49.5625 L 155.042969 49.167969 L 155.171875 48.773438 L 155.308594 48.382813 L 155.449219 47.996094 L 155.597656 47.609375 L 155.75 47.222656 L 155.910156 46.839844 L 156.078125 46.460938 L 156.25 46.085938 L 156.425781 45.710938 L 156.609375 45.339844 L 156.800781 44.972656 L 156.996094 44.609375 L 157.195313 44.246094 L 157.402344 43.886719 L 157.617188 43.535156 L 157.835938 43.183594 L 158.058594 42.832031 L 158.289063 42.488281 L 158.523438 42.148438 L 158.761719 41.8125 L 159.007813 41.476563 L 159.257813 41.148438 L 159.773438 40.5 L 160.042969 40.183594 L 160.3125 39.871094 L 160.589844 39.5625 L 160.871094 39.257813 L 161.15625 38.960938 Z M 161.445313 38.664063 "/>
<path style="fill:none;stroke-width:2.25;stroke-linecap:round;stroke-linejoin:round;stroke:rgb(0%,0%,0%);stroke-opacity:1;stroke-miterlimit:10;" d="M 161.816406 75.554688 L 162.105469 75.261719 L 162.390625 74.960938 L 162.671875 74.65625 L 162.949219 74.347656 L 163.21875 74.035156 L 163.484375 73.71875 L 163.746094 73.398438 L 164.003906 73.070313 L 164.253906 72.742188 L 164.5 72.410156 L 164.738281 72.070313 L 164.972656 71.730469 L 165.203125 71.386719 L 165.425781 71.039063 L 165.644531 70.6875 L 165.855469 70.332031 L 166.0625 69.972656 L 166.265625 69.609375 L 166.460938 69.246094 L 166.648438 68.878906 L 166.835938 68.507813 L 167.011719 68.132813 L 167.183594 67.757813 L 167.351563 67.378906 L 167.511719 66.996094 L 167.664063 66.613281 L 167.8125 66.226563 L 167.953125 65.835938 L 168.089844 65.445313 L 168.21875 65.050781 L 168.339844 64.65625 L 168.457031 64.261719 L 168.566406 63.859375 L 168.671875 63.460938 L 168.769531 63.058594 L 168.859375 62.65625 L 168.945313 62.25 L 169.023438 61.84375 L 169.09375 61.4375 L 169.160156 61.027344 L 169.21875 60.617188 L 169.273438 60.207031 L 169.316406 59.796875 L 169.355469 59.382813 L 169.390625 58.972656 L 169.414063 58.558594 L 169.433594 58.144531 L 169.449219 57.730469 L 169.457031 57.316406 L 169.457031 56.902344 L 169.449219 56.488281 L 169.433594 56.074219 L 169.414063 55.664063 L 169.390625 55.25 L 169.355469 54.835938 L 169.316406 54.425781 L 169.273438 54.011719 L 169.21875 53.601563 L 169.160156 53.191406 L 169.09375 52.785156 L 169.023438 52.375 L 168.945313 51.96875 L 168.859375 51.566406 L 168.769531 51.160156 L 168.671875 50.757813 L 168.566406 50.359375 L 168.457031 49.960938 L 168.339844 49.5625 L 168.21875 49.167969 L 168.089844 48.773438 L 167.953125 48.382813 L 167.8125 47.996094 L 167.664063 47.609375 L 167.511719 47.222656 L 167.351563 46.839844 L 167.183594 46.460938 L 167.011719 46.085938 L 166.835938 45.710938 L 166.648438 45.339844 L 166.460938 44.972656 L 166.265625 44.609375 L 166.0625 44.246094 L 165.855469 43.886719 L 165.644531 43.535156 L 165.425781 43.183594 L 165.203125 42.832031 L 164.972656 42.488281 L 164.738281 42.148438 L 164.5 41.8125 L 164.253906 41.476563 L 164.003906 41.148438 L 163.746094 40.824219 L 163.484375 40.5 L 163.21875 40.183594 L 162.949219 39.871094 L 162.671875 39.5625 L 162.390625 39.257813 L 162.105469 38.960938 L 161.816406 38.664063 L 162.105469 38.960938 L 162.390625 39.257813 L 162.671875 39.5625 L 162.949219 39.871094 L 163.21875 40.183594 L 163.484375 40.5 L 163.746094 40.824219 L 164.003906 41.148438 L 164.253906 41.476563 L 164.5 41.8125 L 164.738281 42.148438 L 164.972656 42.488281 L 165.203125 42.832031 L 165.425781 43.183594 L 165.644531 43.535156 L 165.855469 43.886719 L 166.0625 44.246094 L 166.265625 44.609375 L 166.460938 44.972656 L 166.648438 45.339844 L 166.835938 45.710938 L 167.011719 46.085938 L 167.183594 46.460938 L 167.351563 46.839844 L 167.511719 47.222656 L 167.664063 47.609375 L 167.8125 47.996094 L 167.953125 48.382813 L 168.089844 48.773438 L 168.21875 49.167969 L 168.339844 49.5625 L 168.457031 49.960938 L 168.566406 50.359375 L 168.671875 50.757813 L 168.769531 51.160156 L 168.859375 51.566406 L 168.945313 51.96875 L 169.023438 52.375 L 169.09375 52.785156 L 169.160156 53.191406 L 169.21875 53.601563 L 169.273438 54.011719 L 169.316406 54.425781 L 169.355469 54.835938 L 169.390625 55.25 L 169.414063 55.664063 L 169.433594 56.074219 L 169.449219 56.488281 L 169.457031 56.902344 L 169.457031 57.316406 L 169.449219 57.730469 L 169.433594 58.144531 L 169.414063 58.558594 L 169.390625 58.972656 L 169.355469 59.382813 L 169.316406 59.796875 L 169.273438 60.207031 L 169.21875 60.617188 L 169.160156 61.027344 L 169.09375 61.4375 L 169.023438 61.84375 L 168.945313 62.25 L 168.859375 62.65625 L 168.769531 63.058594 L 168.671875 63.460938 L 168.566406 63.859375 L 168.457031 64.261719 L 168.339844 64.65625 L 168.21875 65.050781 L 168.089844 65.445313 L 167.953125 65.835938 L 167.8125 66.226563 L 167.664063 66.613281 L 167.511719 66.996094 L 167.351563 67.378906 L 167.183594 67.757813 L 167.011719 68.132813 L 166.835938 68.507813 L 166.648438 68.878906 L 166.460938 69.246094 L 166.265625 69.609375 L 166.0625 69.972656 L 165.855469 70.332031 L 165.644531 70.6875 L 165.425781 71.039063 L 165.203125 71.386719 L 164.972656 71.730469 L 164.738281 72.070313 L 164.5 72.410156 L 164.253906 72.742188 L 164.003906 73.070313 L 163.746094 73.398438 L 163.484375 73.71875 L 163.21875 74.035156 L 162.949219 74.347656 L 162.671875 74.65625 L 162.390625 74.960938 L 162.105469 75.261719 Z M 161.816406 75.554688 "/>
<path style="fill:none;stroke-width:2.25;stroke-linecap:round;stroke-linejoin:round;stroke:rgb(0%,0%,0%);stroke-opacity:1;stroke-miterlimit:10;" d="M 161.445313 75.554688 L 161.738281 75.84375 L 162.039063 76.128906 L 162.34375 76.410156 L 162.652344 76.6875 L 162.964844 76.957031 L 163.28125 77.226563 L 163.601563 77.484375 L 163.929688 77.742188 L 164.257813 77.992188 L 164.589844 78.238281 L 164.929688 78.476563 L 165.269531 78.710938 L 165.613281 78.941406 L 165.960938 79.164063 L 166.3125 79.382813 L 166.667969 79.597656 L 167.027344 79.804688 L 167.390625 80.003906 L 167.753906 80.199219 L 168.121094 80.390625 L 168.492188 80.574219 L 168.867188 80.75 L 169.242188 80.921875 L 169.621094 81.089844 L 170.003906 81.25 L 170.386719 81.402344 L 170.773438 81.550781 L 171.164063 81.691406 L 171.554688 81.828125 L 171.949219 81.957031 L 172.34375 82.078125 L 172.738281 82.195313 L 173.140625 82.304688 L 173.539063 82.410156 L 173.941406 82.507813 L 174.34375 82.597656 L 174.75 82.683594 L 175.15625 82.761719 L 175.5625 82.832031 L 175.972656 82.898438 L 176.382813 82.957031 L 176.792969 83.011719 L 177.203125 83.054688 L 177.617188 83.097656 L 178.027344 83.128906 L 178.441406 83.15625 L 178.855469 83.175781 L 179.269531 83.1875 L 179.683594 83.195313 L 180.097656 83.195313 L 180.511719 83.1875 L 180.925781 83.175781 L 181.335938 83.15625 L 181.75 83.128906 L 182.164063 83.097656 L 182.574219 83.054688 L 182.988281 83.011719 L 183.398438 82.957031 L 183.808594 82.898438 L 184.214844 82.832031 L 184.625 82.761719 L 185.03125 82.683594 L 185.433594 82.597656 L 185.839844 82.507813 L 186.242188 82.410156 L 186.640625 82.304688 L 187.039063 82.195313 L 187.4375 82.078125 L 187.832031 81.957031 L 188.226563 81.828125 L 188.617188 81.691406 L 189.003906 81.550781 L 189.390625 81.402344 L 189.777344 81.25 L 190.160156 81.089844 L 190.539063 80.921875 L 190.914063 80.75 L 191.289063 80.574219 L 191.660156 80.390625 L 192.027344 80.199219 L 192.390625 80.003906 L 192.753906 79.804688 L 193.113281 79.597656 L 193.464844 79.382813 L 193.816406 79.164063 L 194.167969 78.941406 L 194.511719 78.710938 L 194.851563 78.476563 L 195.1875 78.238281 L 195.523438 77.992188 L 195.851563 77.742188 L 196.5 77.226563 L 196.816406 76.957031 L 197.128906 76.6875 L 197.4375 76.410156 L 197.742188 76.128906 L 198.039063 75.84375 L 198.335938 75.554688 L 198.039063 75.84375 L 197.742188 76.128906 L 197.4375 76.410156 L 197.128906 76.6875 L 196.816406 76.957031 L 196.5 77.226563 L 195.851563 77.742188 L 195.523438 77.992188 L 195.1875 78.238281 L 194.851563 78.476563 L 194.511719 78.710938 L 194.167969 78.941406 L 193.816406 79.164063 L 193.464844 79.382813 L 193.113281 79.597656 L 192.753906 79.804688 L 192.390625 80.003906 L 192.027344 80.199219 L 191.660156 80.390625 L 191.289063 80.574219 L 190.914063 80.75 L 190.539063 80.921875 L 190.160156 81.089844 L 189.777344 81.25 L 189.390625 81.402344 L 189.003906 81.550781 L 188.617188 81.691406 L 188.226563 81.828125 L 187.832031 81.957031 L 187.4375 82.078125 L 187.039063 82.195313 L 186.640625 82.304688 L 186.242188 82.410156 L 185.839844 82.507813 L 185.433594 82.597656 L 185.03125 82.683594 L 184.625 82.761719 L 184.214844 82.832031 L 183.808594 82.898438 L 183.398438 82.957031 L 182.988281 83.011719 L 182.574219 83.054688 L 182.164063 83.097656 L 181.75 83.128906 L 181.335938 83.15625 L 180.925781 83.175781 L 180.511719 83.1875 L 180.097656 83.195313 L 179.683594 83.195313 L 179.269531 83.1875 L 178.855469 83.175781 L 178.441406 83.15625 L 178.027344 83.128906 L 177.617188 83.097656 L 177.203125 83.054688 L 176.792969 83.011719 L 176.382813 82.957031 L 175.972656 82.898438 L 175.5625 82.832031 L 175.15625 82.761719 L 174.75 82.683594 L 174.34375 82.597656 L 173.941406 82.507813 L 173.539063 82.410156 L 173.140625 82.304688 L 172.738281 82.195313 L 172.34375 82.078125 L 171.949219 81.957031 L 171.554688 81.828125 L 171.164063 81.691406 L 170.773438 81.550781 L 170.386719 81.402344 L 170.003906 81.25 L 169.621094 81.089844 L 169.242188 80.921875 L 168.867188 80.75 L 168.492188 80.574219 L 168.121094 80.390625 L 167.753906 80.199219 L 167.390625 80.003906 L 167.027344 79.804688 L 166.667969 79.597656 L 166.3125 79.382813 L 165.960938 79.164063 L 165.613281 78.941406 L 165.269531 78.710938 L 164.929688 78.476563 L 164.589844 78.238281 L 164.257813 77.992188 L 163.929688 77.742188 L 163.601563 77.484375 L 163.28125 77.226563 L 162.964844 76.957031 L 162.652344 76.6875 L 162.34375 76.410156 L 162.039063 76.128906 L 161.738281 75.84375 Z M 161.445313 75.554688 "/>
<path style="fill:none;stroke-width:2.25;stroke-linecap:round;stroke-linejoin:round;stroke:rgb(0%,0%,0%);stroke-opacity:1;stroke-miterlimit:10;" d="M 198.683594 75.183594 L 198.386719 74.894531 L 198.089844 74.609375 L 197.785156 74.328125 L 197.476563 74.050781 L 197.164063 73.78125 L 196.847656 73.515625 L 196.523438 73.253906 L 196.199219 72.996094 L 195.871094 72.746094 L 195.535156 72.5 L 195.199219 72.261719 L 194.859375 72.027344 L 194.515625 71.796875 L 194.164063 71.574219 L 193.8125 71.355469 L 193.460938 71.144531 L 193.101563 70.9375 L 192.738281 70.734375 L 192.375 70.539063 L 192.007813 70.351563 L 191.636719 70.164063 L 191.261719 69.988281 L 190.886719 69.816406 L 190.507813 69.648438 L 190.125 69.488281 L 189.742188 69.335938 L 189.355469 69.1875 L 188.964844 69.046875 L 188.574219 68.910156 L 188.179688 68.78125 L 187.785156 68.660156 L 187.386719 68.542969 L 186.988281 68.433594 L 186.589844 68.328125 L 186.1875 68.230469 L 185.78125 68.140625 L 185.378906 68.054688 L 184.972656 67.976563 L 184.5625 67.90625 L 184.15625 67.839844 L 183.746094 67.78125 L 183.335938 67.726563 L 182.921875 67.683594 L 182.511719 67.644531 L 182.097656 67.609375 L 181.6875 67.585938 L 181.273438 67.566406 L 180.859375 67.550781 L 180.445313 67.542969 L 180.03125 67.542969 L 179.617188 67.550781 L 179.203125 67.566406 L 178.789063 67.585938 L 178.378906 67.609375 L 177.964844 67.644531 L 177.550781 67.683594 L 177.140625 67.726563 L 176.730469 67.78125 L 176.320313 67.839844 L 175.914063 67.90625 L 175.503906 67.976563 L 175.097656 68.054688 L 174.691406 68.140625 L 174.289063 68.230469 L 173.886719 68.328125 L 173.488281 68.433594 L 173.085938 68.542969 L 172.691406 68.660156 L 172.296875 68.78125 L 171.902344 68.910156 L 171.511719 69.046875 L 171.121094 69.1875 L 170.734375 69.335938 L 170.351563 69.488281 L 169.96875 69.648438 L 169.589844 69.816406 L 169.214844 69.988281 L 168.839844 70.164063 L 168.46875 70.351563 L 168.101563 70.539063 L 167.738281 70.734375 L 167.375 70.9375 L 167.015625 71.144531 L 166.660156 71.355469 L 166.308594 71.574219 L 165.960938 71.796875 L 165.617188 72.027344 L 165.277344 72.261719 L 164.9375 72.5 L 164.605469 72.746094 L 164.277344 72.996094 L 163.949219 73.253906 L 163.628906 73.515625 L 163.3125 73.78125 L 163 74.050781 L 162.691406 74.328125 L 162.386719 74.609375 L 162.085938 74.894531 L 161.792969 75.183594 L 162.085938 74.894531 L 162.386719 74.609375 L 162.691406 74.328125 L 163 74.050781 L 163.3125 73.78125 L 163.628906 73.515625 L 163.949219 73.253906 L 164.277344 72.996094 L 164.605469 72.746094 L 164.9375 72.5 L 165.277344 72.261719 L 165.617188 72.027344 L 165.960938 71.796875 L 166.308594 71.574219 L 166.660156 71.355469 L 167.015625 71.144531 L 167.375 70.9375 L 167.738281 70.734375 L 168.101563 70.539063 L 168.46875 70.351563 L 168.839844 70.164063 L 169.214844 69.988281 L 169.589844 69.816406 L 169.96875 69.648438 L 170.351563 69.488281 L 170.734375 69.335938 L 171.121094 69.1875 L 171.511719 69.046875 L 171.902344 68.910156 L 172.296875 68.78125 L 172.691406 68.660156 L 173.085938 68.542969 L 173.488281 68.433594 L 173.886719 68.328125 L 174.289063 68.230469 L 174.691406 68.140625 L 175.097656 68.054688 L 175.503906 67.976563 L 175.914063 67.90625 L 176.320313 67.839844 L 176.730469 67.78125 L 177.140625 67.726563 L 177.550781 67.683594 L 177.964844 67.644531 L 178.378906 67.609375 L 178.789063 67.585938 L 179.203125 67.566406 L 179.617188 67.550781 L 180.03125 67.542969 L 180.445313 67.542969 L 180.859375 67.550781 L 181.273438 67.566406 L 181.6875 67.585938 L 182.097656 67.609375 L 182.511719 67.644531 L 182.921875 67.683594 L 183.335938 67.726563 L 183.746094 67.78125 L 184.15625 67.839844 L 184.5625 67.90625 L 184.972656 67.976563 L 185.378906 68.054688 L 185.78125 68.140625 L 186.1875 68.230469 L 186.589844 68.328125 L 186.988281 68.433594 L 187.386719 68.542969 L 187.785156 68.660156 L 188.179688 68.78125 L 188.574219 68.910156 L 188.964844 69.046875 L 189.355469 69.1875 L 189.742188 69.335938 L 190.125 69.488281 L 190.507813 69.648438 L 190.886719 69.816406 L 191.261719 69.988281 L 191.636719 70.164063 L 192.007813 70.351563 L 192.375 70.539063 L 192.738281 70.734375 L 193.101563 70.9375 L 193.460938 71.144531 L 193.8125 71.355469 L 194.164063 71.574219 L 194.515625 71.796875 L 194.859375 72.027344 L 195.199219 72.261719 L 195.535156 72.5 L 195.871094 72.746094 L 196.199219 72.996094 L 196.523438 73.253906 L 196.847656 73.515625 L 197.164063 73.78125 L 197.476563 74.050781 L 197.785156 74.328125 L 198.089844 74.609375 L 198.386719 74.894531 Z M 198.683594 75.183594 "/>
</g>
</svg>
